<svg data-v-16121c08="" width="40" height="41" viewBox="0 0 40 41" fill="none" xmlns="http://www.w3.org/2000/svg"><path data-v-16121c08="" d="M24.2868 32.4285C27.8763 29.4163 32.2715 27.5027 36.938 26.9205C37.4879 26.8487 37.9927 26.5812 38.3583 26.1677C38.7239 25.7543 38.9253 25.2232 38.9251
                      24.6734V8.78813C38.926 8.46123 38.8561 8.13794 38.72 7.84017C38.5839 7.5424 38.3848 7.27711 38.1362 7.06227C37.8876 6.84743 37.5953 6.68805 37.2791
                      6.59495C36.963 6.50185 36.6303 6.47719 36.3037 6.52265C31.8708 7.20118 27.7126 9.07867 24.2868 11.9485C23.8769 12.2638 23.3728 12.4349 22.854
                      12.4349C22.3351 12.4349 21.831 12.2638 21.4211 11.9485C17.996 9.0809 13.8395 7.20495 9.40849 6.5269C9.08223 6.48149 8.74994 6.50605 8.43409 6.5989C8.11823
                      6.69176 7.82617 6.85075 7.57765 7.06512C7.32913 7.2795 7.12994 7.54427 6.99356 7.84152C6.85718 8.13877 6.78677 8.46159 6.78711 8.78813V24.6734C6.78686
                      25.2232 6.98832 25.7543 7.35391 26.1677C7.71951 26.5812 8.22431 26.8487 8.77422 26.9205C13.4422 27.5019 17.839 29.4155 21.4297 32.4285C21.8386 32.7424 22.3411
                      32.9127 22.8582 32.9127C23.3754 32.9127 23.8779 32.7424 24.2868 32.4285Z" fill="#B6E9ED"></path> <g data-v-16121c08="" clip-path="url(#clip0)"><path data-v-16121c08="" d="M18.5719 38.448C22.1615 35.4358 26.5567 33.5222 31.2231 32.9401C31.773 32.8682 32.2778 32.6007 32.6434 32.1873C33.009 31.7738 33.2105 31.2427 33.2102
                      30.693V14.8077C33.2112 14.4808 33.1412 14.1575 33.0051 13.8597C32.869 13.5619 32.6699 13.2966 32.4213 13.0818C32.1727 12.867 31.8805 12.7076 31.5643 12.6145C31.2481
                      12.5214 30.9155 12.4967 30.5889 12.5422C26.1559 13.2207 21.9978 15.0982 18.5719 17.968C18.162 18.2833 17.658 18.4544 17.1391 18.4544C16.6203 18.4544 16.1162 18.2833
                      15.7063 17.968C12.2812 15.1004 8.12463 13.2245 3.69365 12.5464C3.36739 12.501 3.0351 12.5256 2.71924 12.6184C2.40339 12.7113 2.11133 12.8703 1.86281 13.0847C1.61429
                      13.299 1.4151 13.5638 1.27872 13.8611C1.14233 14.1583 1.07193 14.4811 1.07227 14.8077V30.693C1.07202 31.2427 1.27347 31.7738 1.63907 32.1873C2.00467 32.6007 2.50947
                      32.8682 3.05937 32.9401C7.72731 33.5214 12.1241 35.435 15.7149 38.448C16.1237 38.7619 16.6262 38.9323 17.1434 38.9323C17.6606 38.9323 18.1631 38.7619 18.5719 38.448V38.448Z" stroke="#32374E" stroke-width="2.1838" stroke-linecap="round" stroke-linejoin="round"></path> <path data-v-16121c08="" d="M28.5996 7.07812C24.9164 7.99217 21.4886 9.71754 18.5712 12.1259C18.1613 12.4412 17.6572 12.6123 17.1383 12.6123C16.6195 12.6123 16.1154 12.4412 15.7055 12.1259C12.7923 9.71948 9.36954 7.99464 5.69141 7.07954" stroke="#32374E" stroke-width="2.1838" stroke-linecap="round" stroke-linejoin="round"></path> <path data-v-16121c08="" d="M17.1406 18.4521V38.9307" stroke="#32374E" stroke-width="2.1838" stroke-linecap="round" stroke-linejoin="round"></path></g> <defs data-v-16121c08=""><clipPath data-v-16121c08="" id="clip0"><rect data-v-16121c08="" width="34.2851" height="33.9823" fill="white" transform="translate(0 6.01953)"></rect></clipPath></defs></svg>