<svg data-v-16121c08="" width="42" height="40" viewBox="0 0 42 40" fill="none" xmlns="http://www.w3.org/2000/svg"><path data-v-16121c08="" d="M24.5168 1.06641L8.34961 7.43809L24.5168 13.8098L40.684 7.43809L24.5168 1.06641Z" fill="#B6EDD2"></path> <path data-v-16121c08="" d="M8.34961 7.44141V26.5564L24.5168 32.9281V13.8131L8.34961 7.44141Z" fill="#B6EDD2"></path> <path data-v-16121c08="" d="M40.6867 7.44141V26.5564L24.5195 32.9281V13.8131L40.6867 7.44141Z" fill="#B6EDD2"></path> <g data-v-16121c08="" clip-path="url(#clip0)"><path data-v-16121c08="" d="M17.2434 7.07812L1.07617 13.4498L17.2434 19.8215L33.4106 13.4498L17.2434 7.07812Z" stroke="#32374E" stroke-width="2.15563" stroke-linecap="round" stroke-linejoin="round"></path> <path data-v-16121c08="" d="M1.07617 13.4492V32.5643L17.2434 38.9359V19.8209L1.07617 13.4492Z" stroke="#32374E" stroke-width="2.15563" stroke-linecap="round" stroke-linejoin="round"></path> <path data-v-16121c08="" d="M33.4133 13.4492V32.5643L17.2461 38.9359V19.8209L33.4133 13.4492Z" stroke="#32374E" stroke-width="2.15563" stroke-linecap="round" stroke-linejoin="round"></path> <path data-v-16121c08="" d="M26.1398 16.3204L9.97266 9.94873" stroke="#32374E" stroke-width="2.15563" stroke-linecap="round" stroke-linejoin="round"></path> <path data-v-16121c08="" d="M29.6379 29.375L26.9434 30.4369" stroke="#32374E" stroke-width="2.15563" stroke-linecap="round" stroke-linejoin="round"></path></g> <defs data-v-16121c08=""><clipPath data-v-16121c08="" id="clip0"><rect data-v-16121c08="" width="34.49" height="33.9823" fill="white" transform="translate(0 6.01562)"></rect></clipPath></defs></svg>