<svg data-v-16121c08="" width="40" height="40" viewBox="0 0 40 40" fill="none" xmlns="http://www.w3.org/2000/svg"><path data-v-16121c08="" d="M7.27344 4C7.27344 1.79086 9.0643 0 11.2734 0H36.0007C38.2098 0 40.0007 1.79086 40.0007 4V28.7273C40.0007 30.9364 38.2098 32.7273 36.0007 32.7273H11.2734C9.0643 32.7273 7.27344 30.9364 7.27344 28.7273V4Z" fill="#DEC2F5"></path> <g data-v-16121c08="" clip-path="url(#clip0)"><path data-v-16121c08="" d="M11.2507 33.8659C11.2507 35.2221 10.712 36.5228 9.75296 37.4817C8.79397 38.4407 7.49329 38.9795 6.13707 38.9795C4.78085 38.9795 3.48018 38.4407 2.52119 37.4817C1.56219 36.5228 1.02344 35.2221 1.02344 33.8659V16.4795" stroke="#32374E" stroke-width="2.18" stroke-linecap="round" stroke-linejoin="round"></path> <path data-v-16121c08="" d="M21.4773 33.8623C21.4773 35.2185 20.9385 36.5192 19.9795 37.4782C19.0205 38.4372 17.7199 38.9759 16.3636 38.9759C15.0074 38.9759 13.7067 38.4372 12.7477 37.4782C11.7888 36.5192 11.25 35.2185 11.25 33.8623" stroke="#32374E" stroke-width="2.18" stroke-linecap="round" stroke-linejoin="round"></path> <path data-v-16121c08="" d="M31.7058 16.4795V33.8659C31.7058 35.2221 31.167 36.5228 30.208 37.4817C29.249 38.4407 27.9484 38.9795 26.5922 38.9795C25.2359 38.9795 23.9353 38.4407 22.9763 37.4817C22.0173 36.5228 21.4785 35.2221 21.4785 33.8659" stroke="#32374E" stroke-width="2.18" stroke-linecap="round" stroke-linejoin="round"></path> <path data-v-16121c08="" d="M11.2507 16.4777C11.2507 17.8339 10.712 19.1346 9.75296 20.0936C8.79397 21.0526 7.49329 21.5914 6.13707 21.5914C4.78085 21.5914 3.48018 21.0526 2.52119 20.0936C1.56219 19.1346 1.02344 17.8339 1.02344 16.4777V8.2959" stroke="#32374E" stroke-width="2.18" stroke-linecap="round" stroke-linejoin="round"></path> <path data-v-16121c08="" d="M21.4773 16.4795C21.4773 17.8357 20.9385 19.1364 19.9795 20.0954C19.0205 21.0544 17.7199 21.5931 16.3636 21.5931C15.0074 21.5931 13.7067 21.0544 12.7477 20.0954C11.7888 19.1364 11.25 17.8357 11.25 16.4795" stroke="#32374E" stroke-width="2.18" stroke-linecap="round" stroke-linejoin="round"></path> <path data-v-16121c08="" d="M31.7058 8.2959V16.4777C31.7058 17.8339 31.167 19.1346 30.208 20.0936C29.249 21.0526 27.9484 21.5914 26.5922 21.5914C25.2359 21.5914 23.9353 21.0526 22.9763 20.0936C22.0173 19.1346 21.4785 17.8339 21.4785 16.4777" stroke="#32374E" stroke-width="2.18" stroke-linecap="round" stroke-linejoin="round"></path> <path data-v-16121c08="" d="M6.13672 8.2959V17.5004" stroke="#32374E" stroke-width="2.18" stroke-linecap="round" stroke-linejoin="round"></path> <path data-v-16121c08="" d="M16.3652 8.2959V17.5004" stroke="#32374E" stroke-width="2.18" stroke-linecap="round" stroke-linejoin="round"></path> <path data-v-16121c08="" d="M26.5918 8.2959V17.5004" stroke="#32374E" stroke-width="2.18" stroke-linecap="round" stroke-linejoin="round"></path> <path data-v-16121c08="" d="M11.25 33.8641V8.2959" stroke="#32374E" stroke-width="2.18" stroke-linecap="round" stroke-linejoin="round"></path> <path data-v-16121c08="" d="M21.4785 33.8641V8.2959" stroke="#32374E" stroke-width="2.18" stroke-linecap="round" stroke-linejoin="round"></path></g> <defs data-v-16121c08=""><clipPath data-v-16121c08="" id="clip0"><rect data-v-16121c08="" width="32.7273" height="32.7273" fill="white" transform="translate(0 7.27295)"></rect></clipPath></defs></svg>