<svg data-v-16121c08="" width="41" height="41" viewBox="0 0 41 41" fill="none" xmlns="http://www.w3.org/2000/svg"><path data-v-16121c08="" d="M34.5501 16.8781C34.5495 15.6313 34.9905 14.4245 35.7949 13.4718C36.5993 12.5191 37.7151 11.882 38.9444 11.6736C39.1905 11.6326 39.414 11.5057 39.5753 11.3153C39.7365 11.125 39.825 10.8836 39.8249 10.6341V7.38338C39.8249 6.82379 39.6026 6.28712 39.207 5.89143C38.8113 5.49573 38.2746 5.27344 37.715 5.27344H10.2857C9.72613 5.27344 9.18946 5.49573 8.79377 5.89143C8.39808 6.28712 8.17578 6.82379 8.17578 7.38338V10.6369C8.17573 10.8864 8.26419 11.1278 8.42544 11.3181C8.58669 11.5085 8.81025 11.6354 9.05633 11.6764C10.2884 11.8817 11.4077 12.5174 12.215 13.4704C13.0224 14.4234 13.4655 15.6319 13.4655 16.8809C13.4655 18.13 13.0224 19.3385 12.215 20.2915C11.4077 21.2445 10.2884 21.8802 9.05633 22.0855C8.81037 22.1267 8.58697 22.2537 8.42577 22.444C8.26458 22.6343 8.17601 22.8756 8.17578 23.125V26.3729C8.17578 26.9325 8.39808 27.4691 8.79377 27.8648C9.18946 28.2605 9.72613 28.4828 10.2857 28.4828H37.715C38.2746 28.4828 38.8113 28.2605 39.207 27.8648C39.6026 27.4691 39.8249 26.9325 39.8249 26.3729V23.1193C39.825 22.8699 39.7365 22.6285 39.5753 22.4381C39.414 22.2478 39.1905 22.1208 38.9444 22.0798C37.7155 21.8715 36.6001 21.2349 35.7958 20.2828C34.9915 19.3306 34.5502 18.1245 34.5501 16.8781Z" fill="#FFB6D9"></path> <g data-v-16121c08="" clip-path="url(#clip0)"><path data-v-16121c08="" d="M27.429 23.1203C27.4284 21.8735 27.8694 20.6667 28.6738 19.714C29.4782 18.7613 30.594 18.1242 31.8233 17.9158C32.0694 17.8748 32.2929 17.7479 32.4542 17.5575C32.6154 17.3672 32.7039 17.1258 32.7039 16.8763V13.6256C32.7039 13.066 32.4816 12.5293 32.0859 12.1336C31.6902 11.7379 31.1535 11.5156 30.5939 11.5156H3.16463C2.60504 11.5156 2.06837 11.7379 1.67268 12.1336C1.27698 12.5293 1.05469 13.066 1.05469 13.6256V16.8791C1.05463 17.1286 1.1431 17.37 1.30435 17.5603C1.46559 17.7507 1.68916 17.8776 1.93524 17.9186C3.16728 18.1239 4.28656 18.7596 5.09393 19.7126C5.9013 20.6656 6.3444 21.8741 6.3444 23.1231C6.3444 24.3722 5.9013 25.5807 5.09393 26.5337C4.28656 27.4867 3.16728 28.1224 1.93524 28.3277C1.68928 28.3689 1.46588 28.4959 1.30468 28.6862C1.14348 28.8765 1.05491 29.1178 1.05469 29.3672V32.6151C1.05469 33.1747 1.27698 33.7113 1.67268 34.107C2.06837 34.5027 2.60504 34.725 3.16463 34.725H30.5939C31.1535 34.725 31.6902 34.5027 32.0859 34.107C32.4816 33.7113 32.7039 33.1747 32.7039 32.6151V29.3615C32.7039 29.1121 32.6154 28.8707 32.4542 28.6803C32.2929 28.49 32.0694 28.363 31.8233 28.322C30.5945 28.1137 29.479 27.4771 28.6747 26.5249C27.8704 25.5728 27.4291 24.3667 27.429 23.1203V23.1203Z" stroke="#32374E" stroke-width="2.10133" stroke-linecap="round" stroke-linejoin="round"></path> <path data-v-16121c08="" d="M16.8789 18.9023H24.2637" stroke="#32374E" stroke-width="2.10133" stroke-linecap="round" stroke-linejoin="round"></path> <path data-v-16121c08="" d="M18.9883 26.8132C18.9883 27.1596 19.0565 27.5025 19.189 27.8225C19.3216 28.1425 19.5159 28.4332 19.7608 28.6782C20.0057 28.9231 20.2964 29.1173 20.6164 29.2499C20.9364 29.3824 21.2794 29.4506 21.6257 29.4506C21.9721 29.4506 22.315 29.3824 22.635 29.2499C22.955 29.1173 23.2457 28.9231 23.4907 28.6782C23.7356 28.4332 23.9298 28.1425 24.0624 27.8225C24.1949 27.5025 24.2631 27.1596 24.2631 26.8132C24.2631 26.4669 24.1949 26.1239 24.0624 25.8039C23.9298 25.4839 23.7356 25.1932 23.4907 24.9483C23.2457 24.7034 22.955 24.5091 22.635 24.3765C22.315 24.244 21.9721 24.1758 21.6257 24.1758C21.2794 24.1758 20.9364 24.244 20.6164 24.3765C20.2964 24.5091 20.0057 24.7034 19.7608 24.9483C19.5159 25.1932 19.3216 25.4839 19.189 25.8039C19.0565 26.1239 18.9883 26.4669 18.9883 26.8132Z" stroke="#32374E" stroke-width="2.10133" stroke-linecap="round" stroke-linejoin="round"></path> <path data-v-16121c08="" d="M10.5508 17.3165C10.5508 17.2122 10.5817 17.1102 10.6397 17.0235C10.6976 16.9367 10.78 16.8691 10.8764 16.8292C10.9728 16.7893 11.0789 16.7788 11.1812 16.7992C11.2835 16.8196 11.3775 16.8698 11.4513 16.9436C11.525 17.0173 11.5753 17.1113 11.5956 17.2136C11.616 17.316 11.6055 17.422 11.5656 17.5184C11.5257 17.6148 11.4581 17.6972 11.3713 17.7551C11.2846 17.8131 11.1826 17.844 11.0783 17.844C10.9384 17.844 10.8042 17.7885 10.7053 17.6895C10.6064 17.5906 10.5508 17.4564 10.5508 17.3165" stroke="#32374E" stroke-width="2.10133" stroke-linecap="round" stroke-linejoin="round"></path> <path data-v-16121c08="" d="M10.5508 23.6437C10.5508 23.5394 10.5817 23.4374 10.6397 23.3506C10.6976 23.2639 10.78 23.1963 10.8764 23.1564C10.9728 23.1164 11.0789 23.106 11.1812 23.1263C11.2835 23.1467 11.3775 23.1969 11.4513 23.2707C11.525 23.3445 11.5753 23.4385 11.5956 23.5408C11.616 23.6431 11.6055 23.7492 11.5656 23.8456C11.5257 23.9419 11.4581 24.0243 11.3713 24.0823C11.2846 24.1402 11.1826 24.1712 11.0783 24.1712C10.9384 24.1712 10.8042 24.1156 10.7053 24.0167C10.6064 23.9178 10.5508 23.7836 10.5508 23.6437Z" stroke="#32374E" stroke-width="2.10133" stroke-linecap="round" stroke-linejoin="round"></path> <path data-v-16121c08="" d="M10.5508 29.9767C10.5508 29.8724 10.5817 29.7704 10.6397 29.6836C10.6976 29.5969 10.78 29.5293 10.8764 29.4894C10.9728 29.4494 11.0789 29.439 11.1812 29.4594C11.2835 29.4797 11.3775 29.5299 11.4513 29.6037C11.525 29.6775 11.5753 29.7715 11.5956 29.8738C11.616 29.9761 11.6055 30.0822 11.5656 30.1786C11.5257 30.2749 11.4581 30.3573 11.3713 30.4153C11.2846 30.4733 11.1826 30.5042 11.0783 30.5042C10.9384 30.5042 10.8042 30.4486 10.7053 30.3497C10.6064 30.2508 10.5508 30.1166 10.5508 29.9767Z" stroke="#32374E" stroke-width="2.10133" stroke-linecap="round" stroke-linejoin="round"></path></g> <defs data-v-16121c08=""><clipPath data-v-16121c08="" id="clip0"><rect data-v-16121c08="" width="33.7591" height="33.7591" fill="white" transform="translate(0 6.24219)"></rect></clipPath></defs></svg>