<svg data-v-16121c08="" width="42" height="41" viewBox="0 0 42 41" fill="none" xmlns="http://www.w3.org/2000/svg"><path data-v-16121c08="" d="M15.5797 17.98L17.3731 21.4589H20.4283C20.5966 21.4549 20.7622 21.501 20.9034 21.5911C21.0447 21.6813 21.1551 21.8114 21.2201 21.9643C21.2852
                      22.1173 21.3018 22.286 21.268 22.4485C21.2342 22.6109 21.1514 22.7595 21.0304 22.8749L18.2253 25.5892L19.7773 29.1064C19.8454 29.2675 19.8604 29.4455
                      19.8204 29.6155C19.7803 29.7854 19.6872 29.9387 19.5541 30.0538C19.4209 30.1688 19.2546 30.2399 19.0783 30.2569C18.9021 30.2739 18.7249 30.236 18.5716
                      30.1485L14.8152 28.0671L11.0573 30.1485C10.9041 30.236 10.7269 30.2739 10.5506 30.2569C10.3744 30.2399 10.208 30.1688 10.0749 30.0538C9.94177 29.9387
                      9.84863 29.7854 9.80858 29.6155C9.76853 29.4455 9.78358 29.2675 9.85163 29.1064L11.4065 25.5892L8.60427 22.8678C8.48333 22.7525 8.40053 22.6038 8.36669
                      22.4414C8.33285 22.2789 8.34954 22.1102 8.41459 21.9572C8.47963 21.8043 8.59 21.6742 8.73127 21.5841C8.87254 21.4939 9.03813 21.4478 9.20639 21.4519H12.2616L14.055
                      17.98C14.1283 17.8434 14.238 17.729 14.3723 17.6493C14.5066 17.5695 14.6605 17.5273 14.8173 17.5273C14.9742 17.5273 15.1281 17.5695 15.2624 17.6493C15.3967
                      17.729 15.5064 17.8434 15.5797 17.98Z" fill="#FFEAB6"></path> <path data-v-16121c08="" d="M25.2809 4.1757L27.0743 7.65463H30.1252C30.2934 7.65058 30.459 7.69665 30.6003 7.78681C30.7416 7.87698 30.8519 8.00704 30.917 8.16C30.982
                      8.31295 30.9987 8.48169 30.9649 8.64415C30.931 8.8066 30.8482 8.95522 30.7273 9.07056L27.9265 11.7863L29.4814 15.3035C29.5494 15.4646 29.5645 15.6426
                      29.5244 15.8126C29.4844 15.9825 29.3912 16.1358 29.2581 16.2509C29.125 16.3659 28.9586 16.437 28.7824 16.454C28.6061 16.471 28.4289 16.4331 28.2757
                      16.3456L24.5207 14.2642L20.7628 16.3456C20.6096 16.4331 20.4324 16.471 20.2561 16.454C20.0799 16.437 19.9135 16.3659 19.7804 16.2509C19.6473 16.1358
                      19.5541 15.9825 19.5141 15.8126C19.474 15.6426 19.4891 15.4646 19.5571 15.3035L21.1106 11.7863L18.3054 9.06207C18.1845 8.94672 18.1017 8.79811 18.0679
                      8.63565C18.034 8.4732 18.0507 8.30446 18.1158 8.1515C18.1808 7.99854 18.2912 7.86848 18.4324 7.77832C18.5737 7.68816 18.7393 7.64209 18.9076 7.64614H21.9627L23.7562
                      4.1672C23.8302 4.03097 23.9406 3.91722 24.0754 3.8382C24.2102 3.75918 24.3643 3.71789 24.5211 3.71876C24.678 3.71964 24.8316 3.76265 24.9655 3.84316C25.0993
                      3.92368 25.2084 4.03865 25.2809 4.1757Z" fill="#FFEAB6"></path> <path data-v-16121c08="" d="M33.4573 17.98L31.6639 21.4589H28.6087C28.4405 21.4549 28.2749 21.501 28.1336 21.5911C27.9923 21.6813 27.882 21.8114 27.8169 21.9643C27.7519
                      22.1173 27.7352 22.286 27.769 22.4485C27.8029 22.6109 27.8857 22.7595 28.0066 22.8749L30.8117 25.5963L29.2597 29.1064C29.1917 29.2675 29.1766 29.4455
                      29.2167 29.6155C29.2567 29.7854 29.3499 29.9387 29.483 30.0538C29.6161 30.1688 29.7825 30.2399 29.9587 30.2569C30.135 30.2739 30.3122 30.236 30.4654
                      30.1485L34.2218 28.0671L37.9797 30.1485C38.133 30.236 38.3102 30.2739 38.4864 30.2569C38.6626 30.2399 38.829 30.1688 38.9622 30.0538C39.0953 29.9387
                      39.1884 29.7854 39.2285 29.6155C39.2685 29.4455 39.2535 29.2675 39.1854 29.1064L37.6305 25.5892L40.4356 22.8678C40.5566 22.7525 40.6394 22.6038 40.6732
                      22.4414C40.7071 22.2789 40.6904 22.1102 40.6253 21.9572C40.5603 21.8043 40.4499 21.6742 40.3086 21.5841C40.1674 21.4939 40.0018 21.4478 39.8335 21.4519H36.7755L34.982
                      17.98C34.9088 17.8434 34.7991 17.729 34.6647 17.6493C34.5304 17.5695 34.3765 17.5273 34.2197 17.5273C34.0629 17.5273 33.909 17.5695 33.7747 17.6493C33.6403
                      17.729 33.5306 17.8434 33.4573 17.98Z" fill="#FFEAB6"></path> <g data-v-16121c08="" clip-path="url(#clip0)"><path data-v-16121c08="" d="M8.30431 23.9995L10.0977 27.4785H13.1529C13.3212 27.4744 13.4868 27.5205 13.628 27.6107C13.7693 27.7008 13.8797 27.8309 13.9447 27.9838C14.0098
                      28.1368 14.0265 28.3055 13.9926 28.468C13.9588 28.6304 13.876 28.7791 13.755 28.8944L10.9499 31.6087L12.5019 35.1259C12.57 35.287 12.585 35.465 12.545
                      35.635C12.5049 35.805 12.4118 35.9583 12.2787 36.0733C12.1456 36.1884 11.9792 36.2594 11.8029 36.2764C11.6267 36.2934 11.4495 36.2555 11.2962 36.168L7.5398
                      34.0866L3.78192 36.168C3.62869 36.2555 3.45148 36.2934 3.27524 36.2764C3.09901 36.2594 2.93262 36.1884 2.7995 36.0733C2.66638 35.9583 2.57324 35.805 2.53319
                      35.635C2.49314 35.465 2.50819 35.287 2.57624 35.1259L4.13112 31.6087L1.32888 28.8873C1.20794 28.772 1.12514 28.6234 1.0913 28.4609C1.05746 28.2985 1.07415
                      28.1297 1.1392 27.9768C1.20424 27.8238 1.31461 27.6937 1.45588 27.6036C1.59715 27.5134 1.76274 27.4674 1.931 27.4714H4.98617L6.7796 23.9995C6.85287 23.8629 6.96258
                      23.7486 7.09692 23.6688C7.23125 23.589 7.38512 23.5469 7.54196 23.5469C7.6988 23.5469 7.85267 23.589 7.987 23.6688C8.12133 23.7486 8.23104 23.8629 8.30431
                      23.9995Z" stroke="#32374E" stroke-width="2.15557" stroke-linecap="round" stroke-linejoin="round"></path> <path data-v-16121c08="" d="M18.0055 10.1952L19.7989 13.6742H22.8498C23.018 13.6701 23.1836 13.7162 23.3249 13.8063C23.4662 13.8965 23.5765 14.0266 23.6416 14.1795C23.7066
                      14.3325 23.7233 14.5012 23.6895 14.6637C23.6556 14.8261 23.5728 14.9747 23.4519 15.0901L20.6511 17.8058L22.206 21.323C22.274 21.4841 22.2891 21.6621 22.249
                      21.8321C22.209 22.0021 22.1158 22.1554 21.9827 22.2704C21.8496 22.3855 21.6832 22.4565 21.507 22.4735C21.3307 22.4905 21.1535 22.4526 21.0003 22.3651L17.2453
                      20.2837L13.4874 22.3651C13.3342 22.4526 13.157 22.4905 12.9807 22.4735C12.8045 22.4565 12.6381 22.3855 12.505 22.2704C12.3719 22.1554 12.2787 22.0021 12.2387
                      21.8321C12.1986 21.6621 12.2137 21.4841 12.2817 21.323L13.8352 17.8058L11.0301 15.0816C10.9091 14.9663 10.8263 14.8176 10.7925 14.6552C10.7586 14.4927 10.7753
                      14.324 10.8404 14.171C10.9054 14.0181 11.0158 13.888 11.1571 13.7979C11.2983 13.7077 11.4639 13.6616 11.6322 13.6657H14.6873L16.4808 10.1867C16.5548 10.0505 16.6652
                      9.93675 16.8 9.85773C16.9348 9.77872 17.0889 9.73742 17.2457 9.73829C17.4026 9.73917 17.5562 9.78218 17.6901 9.86269C17.824 9.94321 17.933 10.0582 18.0055
                      10.1952V10.1952Z" stroke="#32374E" stroke-width="2.15557" stroke-linecap="round" stroke-linejoin="round"></path> <path data-v-16121c08="" d="M26.1819 23.9995L24.3885 27.4785H21.3333C21.1651 27.4744 20.9995 27.5205 20.8582 27.6107C20.717 27.7008 20.6066 27.8309 20.5415 27.9838C20.4765
                      28.1368 20.4598 28.3055 20.4936 28.468C20.5275 28.6304 20.6103 28.7791 20.7312 28.8944L23.5363 31.6158L21.9843 35.1259C21.9163 35.287 21.9012 35.465 21.9413
                      35.635C21.9813 35.805 22.0745 35.9583 22.2076 36.0733C22.3407 36.1884 22.5071 36.2594 22.6833 36.2764C22.8596 36.2934 23.0368 36.2555 23.19 36.168L26.9465
                      34.0866L30.7043 36.168C30.8576 36.2555 31.0348 36.2934 31.211 36.2764C31.3873 36.2594 31.5536 36.1884 31.6868 36.0733C31.8199 35.9583 31.913 35.805 31.9531
                      35.635C31.9931 35.465 31.9781 35.287 31.91 35.1259L30.3551 31.6087L33.1603 28.8873C33.2812 28.772 33.364 28.6234 33.3978 28.4609C33.4317 28.2985 33.415 28.1297
                      33.3499 27.9768C33.2849 27.8238 33.1745 27.6937 33.0333 27.6036C32.892 27.5134 32.7264 27.4674 32.5581 27.4714H29.5001L27.7067 23.9995C27.6334 23.8629 27.5237 23.7486
                      27.3893 23.6688C27.255 23.589 27.1011 23.5469 26.9443 23.5469C26.7875 23.5469 26.6336 23.589 26.4993 23.6688C26.3649 23.7486 26.2552 23.8629 26.1819 23.9995Z" stroke="#32374E" stroke-width="2.15557" stroke-linecap="round" stroke-linejoin="round"></path></g> <defs data-v-16121c08=""><clipPath data-v-16121c08="" id="clip0"><rect data-v-16121c08="" width="34.4892" height="33.9823" fill="white" transform="translate(0 6.01953)"></rect></clipPath></defs></svg>