<svg data-v-16121c08="" width="115" height="116" viewBox="0 0 115 116" fill="none" xmlns="http://www.w3.org/2000/svg"><path data-v-16121c08="" d="M40.3884 87.1406H73.1484C79.7759 87.1406 85.1484 81.768 85.1484 75.1406V42.3806C85.1484 35.7532 79.7759 30.3806 73.1484 30.3806H40.3884C33.761
      30.3806 28.3884 35.7532 28.3884 42.3806V75.1406C28.3884 81.768 33.761 87.1406 40.3884 87.1406Z" fill="#D3D3F8"></path> <path data-v-16121c08="" d="M68.7693 58.7578H101.529C108.157 58.7578 113.529 53.3852 113.529 46.7578V13.9978C113.529 7.37042 108.157 1.99783 101.529 1.99783H68.7693C62.1419
      1.99783 56.7693 7.37041 56.7693 13.9978V46.7578C56.7693 53.3852 62.1419 58.7578 68.7693 58.7578Z" stroke="#32374E" stroke-width="2" stroke-miterlimit="10"></path></svg>